<?xml version="1.0" encoding="iso-8859-1"?>
<!-- Generator: Adobe Illustrator 18.0.0, SVG Export Plug-In . SVG Version: 6.00 Build 0)  -->
<!DOCTYPE svg PUBLIC "-//W3C//DTD SVG 1.1//EN" "http://www.w3.org/Graphics/SVG/1.1/DTD/svg11.dtd">
<svg version="1.1" id="Capa_1" xmlns="http://www.w3.org/2000/svg" xmlns:xlink="http://www.w3.org/1999/xlink" x="0px" y="0px"
	 viewBox="0 0 443.563 443.563" style="enable-background:new 0 0 443.563 443.563;" xml:space="preserve">
<g>
	<path d="M162.936,203.49c-2.86-3.452-7.987-3.929-11.44-1.063l-31.31,25.989c-1.859,1.545-2.934,3.835-2.934,6.25
		c0,2.419,1.075,4.705,2.934,6.252l31.31,25.988c1.516,1.26,3.356,1.873,5.185,1.873c2.331,0,4.65-0.998,6.255-2.933
		c2.87-3.454,2.396-8.578-1.059-11.443L138.1,234.667l23.778-19.733C165.333,212.067,165.807,206.945,162.936,203.49z"/>
	<path d="M439.146,299.938l-71.656-71.352c12.582-16.086,20.091-36.322,20.091-58.279c0-52.254-42.511-94.766-94.765-94.766
		c-33.205,0-62.47,17.17-79.399,43.094H34.703c-6.059,0-10.97,4.908-10.97,10.969v199.464H19.48c-10.76,0-19.48,8.721-19.48,19.475
		c0,10.759,8.721,19.479,19.48,19.479H360.52c10.761,0,19.48-8.721,19.48-19.479c0-10.754-8.72-19.475-19.48-19.475h-4.254v-69.323
		l61.713,61.451c2.927,2.915,6.755,4.371,10.584,4.371c3.849,0,7.699-1.473,10.629-4.416
		C445.037,315.28,445.017,305.782,439.146,299.938z M292.816,105.541c35.711,0,64.765,29.054,64.765,64.766
		c0,35.711-29.053,64.764-64.765,64.764c-35.712,0-64.765-29.053-64.765-64.764C228.052,134.595,257.105,105.541,292.816,105.541z
		 M200.28,354.201h-20.562c-3.125,0-5.655-2.534-5.655-5.659c0-3.121,2.531-5.652,5.655-5.652h20.562
		c3.124,0,5.658,2.531,5.658,5.652C205.938,351.667,203.405,354.201,200.28,354.201z M49.719,330.075V142.019h152.645
		c-2.801,8.938-4.313,18.439-4.313,28.288c0,2.693,0.119,5.358,0.34,7.995c-0.556,0.753-0.998,1.608-1.274,2.56l-29.847,103.094
		c-1.246,4.313,1.232,8.816,5.543,10.063c0.756,0.22,1.514,0.323,2.264,0.323c3.528,0,6.767-2.311,7.804-5.865l23.18-80.059
		c5.911,13.402,14.837,25.186,25.917,34.486l-13.857,11.502c-3.455,2.865-3.925,7.989-1.059,11.443
		c1.605,1.935,3.922,2.933,6.255,2.933c1.83,0,3.667-0.613,5.185-1.873l17.289-14.351c13.866,7.959,29.923,12.514,47.025,12.514
		c13.3,0,25.966-2.76,37.464-7.727v72.731H49.719z"/>
	<path d="M267.464,209.146h50.704c2.567,0,4.648-2.081,4.648-4.648v-41.413c0-2.566-2.081-4.646-4.648-4.646h-2.297v-12.163
		c0-11.427-9.296-20.725-20.724-20.725h-4.662c-11.428,0-20.725,9.299-20.725,20.725v12.163h-2.297c-2.567,0-4.648,2.08-4.648,4.646
		v41.413C262.816,207.064,264.897,209.146,267.464,209.146z M296.007,192.987v3.707c0,1.761-1.429,3.189-3.191,3.189
		c-1.762,0-3.191-1.429-3.191-3.189v-3.707c-1.305-0.975-2.154-2.526-2.154-4.279c0-2.951,2.393-5.344,5.345-5.344
		c2.952,0,5.345,2.393,5.345,5.344C298.162,190.461,297.313,192.013,296.007,192.987z M283.238,146.275
		c0-3.997,3.251-7.247,7.248-7.247h4.662c3.996,0,7.248,3.25,7.248,7.247v12.163h-19.157V146.275z"/>
</g>
<g>
</g>
<g>
</g>
<g>
</g>
<g>
</g>
<g>
</g>
<g>
</g>
<g>
</g>
<g>
</g>
<g>
</g>
<g>
</g>
<g>
</g>
<g>
</g>
<g>
</g>
<g>
</g>
<g>
</g>
</svg>
